<?xml version="1.0" encoding="UTF-8"?>
<svg xmlns="http://www.w3.org/2000/svg" viewBox="0 0 99.213 99.213" width="2400" height="2400"><g fill="#0047ba"><path d="M74.569 49.6a24.963 24.963 0 1 1-24.963-24.961A24.99 24.99 0 0 1 74.569 49.6m3.384 0a28.347 28.347 0 1 0-28.347 28.349A28.347 28.347 0 0 0 77.953 49.6"/><path d="M62.63 44.929h-1.144a.87.87 0 0 0-.416.106 6.7 6.7 0 0 0-.708-1.421 1.7 1.7 0 0 0-1.292-.6c-.88-.1-2.454-.139-5.431-.139-2.559 0-4.511.024-5.7.124a3.6 3.6 0 0 0-1.856.536 27 27 0 0 0-4.024 3.3c-.579.062-1.043.11-1.449.148-1.005.105-1.665.172-2.866.373-1.082.177-1.249 1.613-1.369 2.8-.569.258-.694.756-.694 1.412 0 1.224.34 2.65 1.292 2.65l1.421.024a2.937 2.937 0 0 0 4.837 1.086 3 3 0 0 0 .589-.842l10.32-.024a2.933 2.933 0 0 0 5.335.019l1.808-.258c.766-.144 1.321-1.148 1.321-2.4 0-.512-.034-1.062-.388-1.3h.416a.9.9 0 0 0 .9-.9v-3.789a.91.91 0 0 0-.902-.905m-4.235.512c.168.618.373 1.737.479 2.345h-5.517v-2.962h4.416a.68.68 0 0 1 .627.617Zm-7.607-.612v2.957h-5.837V47.3a20 20 0 0 1 2.411-2.077 2.3 2.3 0 0 1 1.1-.325c.403-.04.785-.059 2.326-.069m-8.062 9.985a2.216 2.216 0 1 1-1.569-3.78 2.23 2.23 0 0 1 2.22 2.216 2.2 2.2 0 0 1-.651 1.564m14.086.651a2.216 2.216 0 0 1 0-4.431h.076a2.216 2.216 0 0 1-.076 4.431M63.209 59.2a.6.6 0 0 0-.12-.2 2.43 2.43 0 0 0-2.512-.555 4 4 0 0 0-.459.143l-3.7 1.368a2 2 0 0 0-.21-.124 2.16 2.16 0 0 0-1.79-.014 4.28 4.28 0 0 1-3 .115 11.5 11.5 0 0 0-1.636-.732 7.97 7.97 0 0 0-6.316.459v-.65h-2.854v-1.119h-4.929v9.9h4.929v-1.685h2.851V64.8a41.6 41.6 0 0 1 7.674-.206 8.65 8.65 0 0 0 4.038-.77l7.675-3.856a.6.6 0 0 0 .339-.311.6.6 0 0 0 .02-.457m-8.344 3.985a8 8 0 0 1-3.685.7 42 42 0 0 0-7.717.2v-3.6a7.27 7.27 0 0 1 6.076-.6 10.7 10.7 0 0 1 1.56.7l.058.024a5 5 0 0 0 3.55-.124 1.44 1.44 0 0 1 1.191.005 1.2 1.2 0 0 1 .344.249l-.87.511a6.5 6.5 0 0 1-3.23.866h-1.306v.718h1.306a7.2 7.2 0 0 0 3.589-.962l.918-.54a.646.646 0 0 0 .311-.8l3.411-1.263a3 3 0 0 1 .369-.115 1.92 1.92 0 0 1 1.712.225ZM58.324 31.418v1.689h-2.857v1.3a41 41 0 0 1-7.674.2 8.7 8.7 0 0 0-4.033.776l-7.679 3.856a.59.59 0 0 0-.34.311.62.62 0 0 0-.019.464.7.7 0 0 0 .119.2 2.44 2.44 0 0 0 2.512.555 4 4 0 0 0 .46-.144l3.7-1.368a2 2 0 0 0 .215.125 2.15 2.15 0 0 0 1.785.014 4.28 4.28 0 0 1 3-.115 12 12 0 0 0 1.637.732 7.98 7.98 0 0 0 6.315-.459v.65h2.857v1.12h4.923v-9.9Zm-2.857 7.316a7.27 7.27 0 0 1-6.076.6 11 11 0 0 1-1.56-.7l-.057-.024a5.02 5.02 0 0 0-3.55.125 1.42 1.42 0 0 1-1.191-.005 1.2 1.2 0 0 1-.345-.249l.876-.512a6.4 6.4 0 0 1 3.253-.866H48.1v-.718h-1.312a7.17 7.17 0 0 0-3.588.962l-.914.541a.647.647 0 0 0-.316.8l-3.411 1.263a3 3 0 0 1-.368.114 1.88 1.88 0 0 1-1.713-.229l7.588-3.809a8.05 8.05 0 0 1 3.689-.7 42 42 0 0 0 7.712-.2Z"/></g></svg>
