<?xml version="1.0" encoding="UTF-8"?>
<svg xmlns="http://www.w3.org/2000/svg" viewBox="0 0 99.213 99.213" width="2400" height="2400"><g fill="#0047ba"><path d="M55.813 58.048a2.291 2.291 0 1 0 2.287 2.291 2.3 2.3 0 0 0-2.287-2.291M47.8 58.048a2.291 2.291 0 1 0 2.279 2.291 2.3 2.3 0 0 0-2.279-2.291M61.969 43.742q-9.865 0-19.719-.013l-1.709-5.92a.85.85 0 0 0-.657-.669l-2.44-.533a.8.8 0 0 0-.173-.024.856.856 0 0 0-.186 1.7l1.895.422c1 4.805 3.332 13.315 4.4 18.108a.865.865 0 0 0 .843.669h15.083a.861.861 0 1 0 0-1.722H44.913l-.384-1.709h15.532a.86.86 0 0 0 .843-.681l1.896-8.588a.85.85 0 0 0-.831-1.04"/></g></svg>
