<?xml version="1.0" encoding="UTF-8"?>
<svg xmlns="http://www.w3.org/2000/svg" viewBox="0 0 99.213 99.213" width="2400" height="2400"><path fill="#fff" d="M51.454 49.544H53.984V50.684H51.454z"/><path fill="#fff" d="M49.184 52.294H53.983999999999995V53.434H49.184z"/><path fill="#fff" d="M44.844 55.044H53.984V56.184H44.844z"/><path fill="#0047ba" d="M66.644 44.234h-13.57a8.373 8.373 0 1 0-15.33 6.15l-6.73 6.75a1.99 1.99 0 0 0-.6 1.44 2.1 2.1 0 0 0 .61 1.431 2.054 2.054 0 0 0 2.88.019l6.74-6.74a9 9 0 0 0 .81.42v5.65a2.154 2.154 0 0 0 2.16 2.141h23.77a1.41 1.41 0 0 0 1.41-1.411V46.375a2.145 2.145 0 0 0-2.15-2.141m-6.8 6.081a1.35 1.35 0 0 1 2.7 0v.769a1.35 1.35 0 1 1-2.7 0Zm-21.98-4.291a7.01 7.01 0 1 1 7.01 7.01 7.025 7.025 0 0 1-7.01-7.01m16.12 10.161h-9.14v-1.141h9.14Zm0-2.75h-4.8v-.041l1.49-1.1h3.31Zm0-2.75h-1.96l.6-1.141h1.36Zm10.87 6.159h-7.32v-1.159a2.24 2.24 0 0 1 2.12-2.111h3.08a2.23 2.23 0 0 1 2.12 2.111Z"/></svg>
