<?xml version="1.0" encoding="UTF-8"?>
<svg xmlns="http://www.w3.org/2000/svg" viewBox="0 0 99.213 99.213" width="2400" height="2400"><g fill="#0047ba"><path d="M74.569 49.6a24.963 24.963 0 1 1-24.963-24.961A24.99 24.99 0 0 1 74.569 49.6m3.384 0a28.347 28.347 0 1 0-28.347 28.349A28.347 28.347 0 0 0 77.953 49.6"/><path d="M69.373 45.448a9.485 9.485 0 0 0-18.968-.156c-1.753.014-3.085.061-4.036.143a4.86 4.86 0 0 0-2.507.72 36 36 0 0 0-5.428 4.445c-.734.082-1.332.143-1.862.2-1.379.136-2.3.231-3.947.51-1.468.238-1.692 2.174-1.855 3.777-.768.36-.931 1.033-.931 1.923 0 1.658.462 3.594 1.76 3.594l1.895.034a3.9 3.9 0 0 0 .924 1.447 4 4 0 0 0 6.421-1.121l13.866-.027a3.98 3.98 0 0 0 7.222.02l2.426-.346c1.046-.191 1.807-1.563 1.807-3.261 0-.748-.055-1.563-.646-1.835a39 39 0 0 0-.136-2.337 9.49 9.49 0 0 0 3.995-7.73m-27.006 6.434v-.618c1.142-1.107 2.711-2.364 3.241-2.785l.054-.048c.374-.3 1.38-.448 3.228-.476v3.927Zm-5.136 10.347a2.957 2.957 0 0 1-2.955-2.962 2.959 2.959 0 1 1 2.955 2.962m21.1-5.917a2.959 2.959 0 1 1-.006 0m1.562-2.392a8.469 8.469 0 1 1 8.472-8.472 8.48 8.48 0 0 1-8.477 8.472Z"/><path d="M65.288 46.965v-3.319h-1.3c-.031-.071-.055-.142-.094-.212l.918-.926-2.342-2.339-.918.918c-.07-.031-.149-.062-.219-.094V39.7H58.68V41q-.115.048-.22.094l-.918-.918-2.342 2.332.918.926a2 2 0 0 0-.086.212h-1.3v3.319h1.3c.023.071.055.141.086.22l-.918.915 2.346 2.346.918-.926q.105.048.22.094v1.3h2.653v-1.3c.07-.031.149-.062.219-.094l.918.926 2.335-2.346-.918-.918c.039-.079.063-.149.094-.22Zm-7.063-1.656a1.683 1.683 0 1 1 1.687 1.68 1.684 1.684 0 0 1-1.687-1.68"/></g></svg>
