<?xml version="1.0" encoding="UTF-8"?>
<svg xmlns="http://www.w3.org/2000/svg" viewBox="0 0 99.213 99.213" width="2400" height="2400"><g fill="#0047ba"><path d="M74.569 49.6a24.963 24.963 0 1 1-24.963-24.961A24.99 24.99 0 0 1 74.569 49.6m3.384 0a28.347 28.347 0 1 0-28.347 28.349A28.347 28.347 0 0 0 77.953 49.6"/><path d="M69.373 45.448a9.485 9.485 0 0 0-18.968-.156c-1.753.014-3.085.061-4.036.143a4.86 4.86 0 0 0-2.507.72 36 36 0 0 0-5.428 4.445c-.734.082-1.332.143-1.862.2-1.379.136-2.3.231-3.947.51-1.468.238-1.692 2.174-1.855 3.777-.768.36-.931 1.033-.931 1.923 0 1.658.462 3.594 1.76 3.594l1.895.034a3.9 3.9 0 0 0 .924 1.447 4 4 0 0 0 6.421-1.121l13.866-.027a3.98 3.98 0 0 0 7.222.02l2.426-.346c1.046-.191 1.807-1.563 1.807-3.261 0-.748-.055-1.563-.646-1.835a39 39 0 0 0-.136-2.337 9.49 9.49 0 0 0 3.995-7.73m-27.006 6.434v-.618c1.142-1.107 2.711-2.364 3.241-2.785l.054-.048c.374-.3 1.38-.448 3.228-.476v3.927Zm-5.136 10.347a2.957 2.957 0 0 1-2.955-2.962 2.959 2.959 0 1 1 2.955 2.962m21.1-5.917a2.959 2.959 0 1 1-.006 0m1.562-2.392a8.469 8.469 0 1 1 8.472-8.472 8.48 8.48 0 0 1-8.477 8.472Z"/><path d="M61.363 48.88H61.3a1.07 1.07 0 0 1-1.044-1.137.65.65 0 0 0-.55-.532.624.624 0 0 0-.69.616 1.08 1.08 0 0 1-1.119 1.053.622.622 0 0 0 .066 1.24 1.01 1.01 0 0 1 .745.317 1.08 1.08 0 0 1 .308.811.63.63 0 0 0 .615.541.62.62 0 0 0 .606-.485l.019-.14a1.07 1.07 0 0 1 .308-.745 1.11 1.11 0 0 1 .811-.3.634.634 0 0 0 .55-.55.62.62 0 0 0-.131-.457.64.64 0 0 0-.431-.232M65.418 43.4c-2.2-.214-2.788-1.323-3.03-3.048a.65.65 0 0 0-.541-.532.68.68 0 0 0-.438.122.54.54 0 0 0-.242.41c-.252 1.752-.56 2.834-2.8 3.048a.61.61 0 0 0-.55.56.623.623 0 0 0 .559.68c2.228.215 2.536 1.3 2.778 3.03a.64.64 0 0 0 .616.55.63.63 0 0 0 .624-.54c.233-1.725.821-2.835 3.03-3.04a.624.624 0 0 0-.009-1.24ZM58.687 47.016a.623.623 0 0 0 .615-.55v-.056a.635.635 0 0 0-.569-.634c-1.165-.112-1.463-.672-1.585-1.6a.61.61 0 0 0-.494-.531.6.6 0 0 0-.466.084.65.65 0 0 0-.27.438c-.131.932-.429 1.492-1.6 1.6a.64.64 0 0 0-.55.568.63.63 0 0 0 .56.672c1.156.121 1.463.68 1.585 1.594a.62.62 0 0 0 .624.559.607.607 0 0 0 .606-.54c.127-.92.434-1.483 1.544-1.604"/></g></svg>
