<?xml version="1.0" encoding="UTF-8"?>
<svg xmlns="http://www.w3.org/2000/svg" viewBox="0 0 99.213 99.213" width="2400" height="2400"><g fill="#0047ba"><path d="M56.475 65.719H43.1c-.677 0-.677 0-.678.691q0 .514-.007 1.029a1.4 1.4 0 0 1-.036.209c-.146.011-.3.034-.457.034H37.37c-.618 0-.617-.005-.622-.647-.008-.958-.034-1.915-.017-2.872a2.8 2.8 0 0 0-.339-1.274 4.5 4.5 0 0 1-.553-1.991 18 18 0 0 1 .023-2.11 4.77 4.77 0 0 1 1.973-3.5 1.7 1.7 0 0 0 .6-1.2 10.3 10.3 0 0 1 1.5-3.659 4.96 4.96 0 0 1 2.481-1.98 2.3 2.3 0 0 1 .738-.12c1.7-.013 3.4-.013 5.094-.014 2.33 0 4.662.052 6.991-.018a4.44 4.44 0 0 1 3.849 2.168 12.7 12.7 0 0 1 1.3 2.885 11.9 11.9 0 0 0 1.879 3.3 4.46 4.46 0 0 1 1.11 3.516 9.3 9.3 0 0 1-.644 2.291 6.3 6.3 0 0 0-.417 2.414q.009 1.137 0 2.276c0 .5-.031.539-.509.54-1.608.006-3.216 0-4.824.008-.371 0-.523-.125-.5-.5.01-.475-.008-.941-.008-1.476m-4.2-11.551c.406-1.268.942-2.492 2.413-2.757a3.16 3.16 0 0 1 3.691 2.018 5.2 5.2 0 0 0-.424-1.248 3.33 3.33 0 0 0-3.35-2.124c-3.5.092-7.007.049-10.511.044a3.27 3.27 0 0 0-2.371 1.021 5.16 5.16 0 0 0-1.4 3.046Zm2.846 6.874a1.37 1.37 0 0 0-1.015-.516q-4.653.006-9.306 0a.96.96 0 0 0-.875.512 1.37 1.37 0 0 0 1.249.528q4.355-.026 8.71 0a1.67 1.67 0 0 0 1.239-.524Zm-16.407-1.167a2.06 2.06 0 0 0 1.773 1.9 2.02 2.02 0 0 0 1.822-1.847 2.06 2.06 0 0 0-1.776-1.76 1.99 1.99 0 0 0-1.819 1.707m21.44.083a1.694 1.694 0 0 0-1.654-1.78 1.877 1.877 0 0 0-1.82 1.739 2.066 2.066 0 0 0 1.734 1.848 1.88 1.88 0 0 0 1.74-1.807m-5.03-.347a1.06 1.06 0 0 0-1.028-.619c-2.812 0-5.625-.012-8.437-.019-.486 0-.974-.007-1.459.024a.49.49 0 0 0-.36.232.4.4 0 0 0 .152.372 2.4 2.4 0 0 0 .893.249q4.571.025 9.141 0a5.6 5.6 0 0 0 1.098-.239m1.832-5.457c-.213-1.047-.789-1.646-1.629-1.61a2.15 2.15 0 0 0-.916.367 1.51 1.51 0 0 0-.632 1.243Z"/><path d="M45.205 47.807a.826.826 0 0 0-.291 1.13l.007.011a.82.82 0 0 0 .7.4.828.828 0 1 0-.42-1.543ZM36.4 48.15a.13.13 0 0 0 .06-.01.834.834 0 0 0 .76-.89l-.01-.02a.821.821 0 0 0-1.64.07v.07a.08.08 0 0 0 .01.05.823.823 0 0 0 .82.73M36.727 52.18h.08a.83.83 0 0 0 .56-.29.82.82 0 0 0 .19-.6v-.03a.82.82 0 0 0-.9-.75.835.835 0 0 0-.75.83v.09a.82.82 0 0 0 .82.75M36.557 50.16h.07a.86.86 0 0 0 .57-.29.82.82 0 0 0 .19-.6v-.02a.84.84 0 0 0-.9-.76.827.827 0 0 0-.75.83v.09a.833.833 0 0 0 .82.75M36.227 46.13a.13.13 0 0 0 .06-.01.82.82 0 0 0 .57-.29.85.85 0 0 0 .19-.6l-.01-.02a.821.821 0 0 0-1.64.07v.09a.836.836 0 0 0 .83.76M36.907 54.2h.07a.827.827 0 0 0 .75-.89v-.03a.824.824 0 0 0-.9-.75.835.835 0 0 0-.75.83v.09a.835.835 0 0 0 .83.75M35.877 42.09h.07a.81.81 0 0 0 .56-.29.87.87 0 0 0 .2-.6l-.01-.03a.821.821 0 0 0-1.64.08v.09a.826.826 0 0 0 .82.75M37.177 56.57a.82.82 0 0 0-.76.82.2.2 0 0 0 .01.07v.02a.827.827 0 0 0 .82.76c.02 0 .04-.01.07-.01a.815.815 0 0 0 .75-.89v-.02a.825.825 0 0 0-.89-.75M37.077 56.22h.07a.82.82 0 0 0 .56-.3.8.8 0 0 0 .19-.6v-.02a.82.82 0 0 0-.89-.75.81.81 0 0 0-.76.82v.09a.836.836 0 0 0 .83.76M36.047 44.11h.07a.84.84 0 0 0 .76-.9l-.01-.02a.821.821 0 0 0-1.64.08v.08a.834.834 0 0 0 .82.76M35.2 34.02h.07a1 1 0 0 0 .1-.016c.121-.029 2.167-.7 2.257-.732A.836.836 0 0 0 38 32c-.01-.01-.02-.02-.02-.03a.865.865 0 0 0-.924-.275c-.08.025-2.058.673-2.12.693a.83.83 0 0 0-.566.782.15.15 0 0 0 .01.07v.02a.82.82 0 0 0 .82.76M35.027 32h.07a1 1 0 0 0 .133-.023 48 48 0 0 0 1.194-.4.6.6 0 0 0 .163-.091.86.86 0 0 0 .34-.66.8.8 0 0 0-.17-.49l-.01-.03a.83.83 0 0 0-.82-.3c-.071.013-1.124.34-1.2.367a.8.8 0 0 0-.335.239.78.78 0 0 0-.19.6v.02a.82.82 0 0 0 .825.768M35.367 36.04a.2.2 0 0 0 .07-.01.77.77 0 0 0 .543-.276 1 1 0 0 0 .217.036 1 1 0 0 0 .19-.02.8.8 0 0 0 .428-.276 1 1 0 0 0 .172.026.8.8 0 0 0 .3-.05.8.8 0 0 0 .309-.224 1 1 0 0 0 .171.024.8.8 0 0 0 .4-.11.8.8 0 0 0 .242-.207 1 1 0 0 0 .158.037.78.78 0 0 0 .49-.16.83.83 0 0 0 .34-.66.8.8 0 0 0-.17-.49l-.01-.02a.84.84 0 0 0-.966-.28c-.065.024-3.067 1-3.121 1.013a.84.84 0 0 0-.593.8.2.2 0 0 0 .01.07v.02a.827.827 0 0 0 .82.757M35.707 40.07h.07a.81.81 0 0 0 .56-.29.8.8 0 0 0 .163-.38.82.82 0 0 0 .594.262 1 1 0 0 0 .18-.02.83.83 0 0 0 .617-.614.82.82 0 0 0 .513.194 1 1 0 0 0 .3-.05.84.84 0 0 0 .5-.562.82.82 0 0 0 .512.182.8.8 0 0 0 .39-.1.83.83 0 0 0 .409-.573.8.8 0 0 0 .521.213.78.78 0 0 0 .49-.16.8.8 0 0 0 .34-.66.84.84 0 0 0-.16-.49l-.03-.03a.815.815 0 0 0-1.454.326.84.84 0 0 0-.916-.1.82.82 0 0 0-.4.522.82.82 0 0 0-.8-.142.83.83 0 0 0-.46.44 1 1 0 0 0-.035.156.83.83 0 0 0-.715-.186.8.8 0 0 0-.6.647.81.81 0 0 0-.656-.257.836.836 0 0 0-.76.83c0 .02.01.04.01.06v.06a.82.82 0 0 0 .817.722M35.537 38.06c.02 0 .05-.01.07-.01a.81.81 0 0 0 .56-.29 1 1 0 0 0 .083-.151.8.8 0 0 0 .4.111.6.6 0 0 0 .18-.02.8.8 0 0 0 .534-.411.8.8 0 0 0 .336.081 1 1 0 0 0 .3-.05.83.83 0 0 0 .413-.367.8.8 0 0 0 .337.077.9.9 0 0 0 .39-.1.84.84 0 0 0 .333-.348.85.85 0 0 0 .337.078.78.78 0 0 0 .49-.16.81.81 0 0 0 .33-.66.78.78 0 0 0-.16-.49l-.02-.03a.8.8 0 0 0-1.385.132.84.84 0 0 0-.735.008.8.8 0 0 0-.3.317.83.83 0 0 0-.628-.017.8.8 0 0 0-.422.377.775.775 0 0 0-1.054.36.8.8 0 0 0-.454-.117.836.836 0 0 0-.76.83.13.13 0 0 0 .01.06v.03a.827.827 0 0 0 .815.76M45.157 44.05a.79.79 0 0 0 .15.61l.01.02a.85.85 0 0 0 .67.34.8.8 0 0 0 .49-.17.827.827 0 0 0 .17-1.15c-.01-.01-.01-.02-.02-.03a.846.846 0 0 0-1.15-.16.78.78 0 0 0-.32.54M48.047 45.87a.88.88 0 0 0-.16-.5l-.02-.02a.836.836 0 0 0-1.15-.17.82.82 0 0 0-.18 1.15l.02.02a.82.82 0 0 0 .66.34.84.84 0 0 0 .49-.16.83.83 0 0 0 .34-.66M42.817 41.29c.01.02.02.03.03.05a.83.83 0 0 0 .67.33.82.82 0 0 0 .49-.16.84.84 0 0 0 .33-.66.78.78 0 0 0-.16-.49l-.03-.03a.83.83 0 0 0-1.14-.16.81.81 0 0 0-.19 1.12M41.447 39.04a.8.8 0 0 0 .15.61l.02.02a.81.81 0 0 0 .66.33.78.78 0 0 0 .49-.16.8.8 0 0 0 .33-.66.78.78 0 0 0-.16-.49l-.01-.02a.847.847 0 0 0-1.16-.17.82.82 0 0 0-.32.54M49.107 47.02a.86.86 0 0 0-1.16-.17.83.83 0 0 0-.17 1.15l.01.02a.85.85 0 0 0 .67.34.824.824 0 0 0 .66-1.32ZM44.067 42.99l.02.02a.82.82 0 0 0 .66.34.8.8 0 0 0 .49-.17.8.8 0 0 0 .33-.66.74.74 0 0 0-.16-.49l-.01-.02a.847.847 0 0 0-1.16-.17.826.826 0 0 0-.17 1.15M39.067 47.38a.827.827 0 0 0 .63-.95c-.01-.02-.01-.04-.02-.06a.83.83 0 0 0-.99-.62.81.81 0 0 0-.63.8.6.6 0 0 0 .02.19v.02a.82.82 0 0 0 .8.64.6.6 0 0 0 .19-.02M39.517 49.32a.817.817 0 0 0 .62-.96.13.13 0 0 0-.01-.06.826.826 0 0 0-.99-.61.805.805 0 0 0-.64.8 1 1 0 0 0 .02.18l.01.03a.82.82 0 0 0 .8.64 1 1 0 0 0 .19-.02M39.587 49.62a.825.825 0 0 0-.64.81 1 1 0 0 0 .02.18v.02a.825.825 0 0 0 .81.64.7.7 0 0 0 .19-.02.82.82 0 0 0 .62-.95c0-.02-.01-.04-.01-.06a.837.837 0 0 0-.99-.62M38.437 45.47a1 1 0 0 0 .18-.02.827.827 0 0 0 .63-.95c0-.02-.01-.05-.01-.07a.825.825 0 0 0-1.63.19.6.6 0 0 0 .02.18v.03a.835.835 0 0 0 .81.64M37.187 42.89a.805.805 0 0 0 .8.64 1 1 0 0 0 .19-.02.825.825 0 0 0 .62-.96c0-.02-.01-.03-.01-.05a.83.83 0 0 0-.99-.62.82.82 0 0 0-.64.8 1 1 0 0 0 .02.19ZM37.347 39.94a.835.835 0 0 0-.64.81 1 1 0 0 0 .02.18l.01.03a.83.83 0 0 0 .8.64 1 1 0 0 0 .19-.02.82.82 0 0 0 .62-.96.13.13 0 0 0-.01-.06.83.83 0 0 0-.99-.62M44.417 45.01a.9.9 0 0 0-.1-.39l-.01-.03a.854.854 0 0 0-1.12-.32.83.83 0 0 0-.34 1.1c.01.02.02.03.02.04a.82.82 0 0 0 .73.43.9.9 0 0 0 .39-.1.83.83 0 0 0 .43-.73M34.323 29.773a.6.6 0 0 0 .227.14c.025.01.047.023.074.031a.8.8 0 0 0 .233.036.8.8 0 0 0 .255-.043q.023.002.045-.007c.022-.009.034-.022.053-.031s.032-.011.047-.019.037-.029.057-.043a.7.7 0 0 0 .187-.173 1 1 0 0 0 .047-.061 1 1 0 0 0 .082-.167c0-.013.012-.026.017-.04a.8.8 0 0 0 .034-.2c0-.012.006-.023.006-.034v-.01a.8.8 0 0 0-.058-.283v-.007a1 1 0 0 0-.037-.095 1 1 0 0 0-.1-.115 1 1 0 0 0-.065-.075.8.8 0 0 0-.171-.117 1 1 0 0 0-.1-.052 1 1 0 0 0-.185-.044 1 1 0 0 0-.123-.012.8.8 0 0 0-.2.033c-.024.007-.048 0-.071.012s-.025.015-.038.021l-.062.019a1 1 0 0 0-.084.063 1 1 0 0 0-.054.04 1 1 0 0 0-.1.105 1 1 0 0 0-.062.079 1 1 0 0 0-.05.1 1 1 0 0 0-.046.108 1 1 0 0 0-.025.161c0 .021-.009.04-.009.061v.01a.8.8 0 0 0 .044.251q-.002.02.006.039l.033.057c.007.014.009.029.017.043s.02.025.029.039a1 1 0 0 0 .087.119 1 1 0 0 0 .06.061M39.957 40.13a.84.84 0 0 0 .73.42.8.8 0 0 0 .39-.1.83.83 0 0 0 .43-.73.9.9 0 0 0-.1-.39l-.01-.02a.85.85 0 0 0-1.12-.33.83.83 0 0 0-.34 1.11c.01.01.01.02.02.04M41.9 43.65a.85.85 0 0 0 .73.43.8.8 0 0 0 .39-.11.81.81 0 0 0 .43-.72.9.9 0 0 0-.1-.4l-.01-.02a.86.86 0 0 0-1.13-.32.83.83 0 0 0-.32 1.12ZM42.047 42.21a.81.81 0 0 0 .43-.73.9.9 0 0 0-.1-.39l-.01-.02a.854.854 0 0 0-1.13-.32.8.8 0 0 0-.39.49.82.82 0 0 0 .07.63l.01.02a.85.85 0 0 0 .73.43.8.8 0 0 0 .39-.11M45.287 46.38l-.01-.02a.85.85 0 0 0-1.12-.33.825.825 0 0 0-.33 1.12l.01.02a.83.83 0 0 0 .73.43.76.76 0 0 0 .39-.1.825.825 0 0 0 .33-1.12M40.127 42.86a.81.81 0 0 0 .53-.76.8.8 0 0 0-.06-.3v-.03a.85.85 0 0 0-1.07-.47.82.82 0 0 0-.48 1.04c0 .02.01.03.01.05a.86.86 0 0 0 .77.53.8.8 0 0 0 .3-.06M41.547 46.56a.84.84 0 0 0 .53-.77 1 1 0 0 0-.05-.3l-.01-.02a.84.84 0 0 0-1.07-.48.83.83 0 0 0-.48 1.05c0 .01.01.03.01.04a.85.85 0 0 0 .78.53 1 1 0 0 0 .29-.05M39.767 44.23a.84.84 0 0 0 .77.53.8.8 0 0 0 .3-.05.82.82 0 0 0 .53-.76.7.7 0 0 0-.06-.3v-.03a.85.85 0 0 0-1.07-.47.81.81 0 0 0-.48 1.04c0 .02.01.03.01.04"/><path d="M38.817 39.45a.83.83 0 0 0-.48 1.04c0 .02.01.03.01.05a.84.84 0 0 0 .77.53.8.8 0 0 0 .3-.06.81.81 0 0 0 .53-.76.8.8 0 0 0-.06-.3c0-.01 0-.03-.01-.03a.83.83 0 0 0-1.06-.47M42.727 47.31a.844.844 0 0 0-1.07-.47.823.823 0 0 0-.47 1.07l.01.02a.82.82 0 0 0 .76.53.7.7 0 0 0 .3-.06.78.78 0 0 0 .46-.43.8.8 0 0 0 .01-.63ZM53.834 47.807a.825.825 0 0 1 .29 1.13l-.006.011a.82.82 0 0 1-.7.4.828.828 0 1 1 .42-1.543ZM62.641 48.15a.13.13 0 0 1-.06-.01.834.834 0 0 1-.76-.89l.01-.02a.821.821 0 0 1 1.64.07v.07a.08.08 0 0 1-.01.05.823.823 0 0 1-.82.73M62.311 52.18h-.08a.83.83 0 0 1-.56-.29.82.82 0 0 1-.19-.6v-.03a.82.82 0 0 1 .9-.75.835.835 0 0 1 .75.83v.09a.82.82 0 0 1-.82.75M62.481 50.16h-.07a.86.86 0 0 1-.57-.29.82.82 0 0 1-.19-.6v-.02a.84.84 0 0 1 .9-.76.827.827 0 0 1 .75.83v.09a.833.833 0 0 1-.82.75M62.811 46.13a.13.13 0 0 1-.06-.01.82.82 0 0 1-.57-.29.85.85 0 0 1-.19-.6l.01-.02a.821.821 0 0 1 1.64.07v.09a.836.836 0 0 1-.83.76M62.131 54.2h-.07a.827.827 0 0 1-.75-.89v-.03a.824.824 0 0 1 .9-.75.835.835 0 0 1 .75.83v.09a.835.835 0 0 1-.83.75M63.161 42.09h-.07a.81.81 0 0 1-.56-.29.87.87 0 0 1-.2-.6l.01-.03a.821.821 0 0 1 1.64.08v.09a.826.826 0 0 1-.82.75M61.861 56.57a.82.82 0 0 1 .76.82.2.2 0 0 1-.01.07v.02a.827.827 0 0 1-.82.76c-.02 0-.04-.01-.07-.01a.815.815 0 0 1-.75-.89v-.02a.825.825 0 0 1 .89-.75M61.961 56.22h-.07a.82.82 0 0 1-.56-.3.8.8 0 0 1-.19-.6v-.02a.82.82 0 0 1 .89-.75.81.81 0 0 1 .76.82v.09a.836.836 0 0 1-.83.76M62.991 44.11h-.07a.84.84 0 0 1-.76-.9l.01-.02a.821.821 0 0 1 1.64.08v.08a.834.834 0 0 1-.82.76M63.841 34.02h-.07a1 1 0 0 1-.1-.016c-.121-.029-2.167-.7-2.256-.732A.835.835 0 0 1 61.041 32c.01-.01.02-.02.02-.03a.865.865 0 0 1 .924-.275c.08.025 2.058.673 2.12.693a.83.83 0 0 1 .566.782.15.15 0 0 1-.01.07v.02a.82.82 0 0 1-.82.76M64.011 32h-.07a1 1 0 0 1-.133-.023 48 48 0 0 1-1.194-.4.6.6 0 0 1-.163-.091.86.86 0 0 1-.34-.66.8.8 0 0 1 .17-.49l.01-.03a.83.83 0 0 1 .821-.3c.07.013 1.123.34 1.194.367a.8.8 0 0 1 .335.239.78.78 0 0 1 .19.6v.02a.82.82 0 0 1-.82.768M63.671 36.04a.2.2 0 0 1-.07-.01.77.77 0 0 1-.543-.276 1 1 0 0 1-.217.036 1 1 0 0 1-.19-.02.8.8 0 0 1-.427-.276 1 1 0 0 1-.173.026.8.8 0 0 1-.3-.05.8.8 0 0 1-.308-.224 1 1 0 0 1-.172.024.8.8 0 0 1-.4-.11.8.8 0 0 1-.242-.207 1 1 0 0 1-.158.037.78.78 0 0 1-.49-.16.83.83 0 0 1-.34-.66.8.8 0 0 1 .17-.49l.01-.02a.84.84 0 0 1 .967-.28c.064.024 3.067 1 3.12 1.013a.84.84 0 0 1 .593.8.2.2 0 0 1-.01.07v.02a.827.827 0 0 1-.82.757M63.331 40.07h-.07a.81.81 0 0 1-.56-.29.8.8 0 0 1-.166-.382.82.82 0 0 1-.594.262 1 1 0 0 1-.18-.02.83.83 0 0 1-.617-.614.82.82 0 0 1-.513.194 1 1 0 0 1-.3-.05.84.84 0 0 1-.5-.562.82.82 0 0 1-.512.182.8.8 0 0 1-.39-.1.83.83 0 0 1-.409-.573.8.8 0 0 1-.52.213.78.78 0 0 1-.49-.16.8.8 0 0 1-.34-.66.84.84 0 0 1 .16-.49l.03-.03a.815.815 0 0 1 1.454.326.84.84 0 0 1 .916-.1.83.83 0 0 1 .4.522.82.82 0 0 1 .8-.142.83.83 0 0 1 .46.44.7.7 0 0 1 .035.156.83.83 0 0 1 .715-.186.8.8 0 0 1 .6.647.81.81 0 0 1 .66-.253.836.836 0 0 1 .76.83c0 .02-.01.04-.01.06v.06a.82.82 0 0 1-.819.72M63.5 38.06c-.02 0-.05-.01-.07-.01a.81.81 0 0 1-.56-.29 1 1 0 0 1-.083-.151.8.8 0 0 1-.4.111.6.6 0 0 1-.18-.02.8.8 0 0 1-.534-.411.8.8 0 0 1-.336.081 1 1 0 0 1-.3-.05.84.84 0 0 1-.413-.367.8.8 0 0 1-.337.077.9.9 0 0 1-.39-.1.83.83 0 0 1-.332-.348.9.9 0 0 1-.338.078.78.78 0 0 1-.49-.16.81.81 0 0 1-.33-.66.78.78 0 0 1 .16-.49l.02-.03a.846.846 0 0 1 1.15-.17.8.8 0 0 1 .235.3.84.84 0 0 1 .735.008.8.8 0 0 1 .3.317.83.83 0 0 1 .628-.017.8.8 0 0 1 .422.377.777.777 0 0 1 1.055.36.8.8 0 0 1 .453-.117.836.836 0 0 1 .76.83.13.13 0 0 1-.01.06v.03a.827.827 0 0 1-.815.762M53.881 44.05a.79.79 0 0 1-.15.61l-.01.02a.85.85 0 0 1-.67.34.8.8 0 0 1-.49-.17.827.827 0 0 1-.17-1.15c.01-.01.01-.02.02-.03a.846.846 0 0 1 1.15-.16.78.78 0 0 1 .32.54M50.991 45.87a.88.88 0 0 1 .16-.5l.02-.02a.836.836 0 0 1 1.15-.17.82.82 0 0 1 .18 1.15l-.02.02a.82.82 0 0 1-.66.34.84.84 0 0 1-.49-.16.83.83 0 0 1-.34-.66M56.221 41.29c-.01.02-.02.03-.03.05a.83.83 0 0 1-.67.33.82.82 0 0 1-.49-.16.84.84 0 0 1-.33-.66.78.78 0 0 1 .16-.49l.03-.03a.83.83 0 0 1 1.14-.16.81.81 0 0 1 .19 1.12M57.591 39.04a.8.8 0 0 1-.15.61l-.02.02a.81.81 0 0 1-.66.33.78.78 0 0 1-.49-.16.8.8 0 0 1-.33-.66.78.78 0 0 1 .16-.49l.01-.02a.847.847 0 0 1 1.16-.17.82.82 0 0 1 .32.54M49.931 47.02a.86.86 0 0 1 1.16-.17.83.83 0 0 1 .17 1.15l-.01.02a.85.85 0 0 1-.67.34.824.824 0 0 1-.66-1.32ZM54.971 42.99l-.02.02a.82.82 0 0 1-.66.34.8.8 0 0 1-.49-.17.8.8 0 0 1-.33-.66.74.74 0 0 1 .16-.49l.01-.02a.847.847 0 0 1 1.16-.17.826.826 0 0 1 .17 1.15M59.971 47.38a.827.827 0 0 1-.63-.95c.01-.02.01-.04.02-.06a.83.83 0 0 1 .99-.62.81.81 0 0 1 .63.8.6.6 0 0 1-.02.19v.02a.82.82 0 0 1-.8.64.6.6 0 0 1-.19-.02M59.521 49.32a.817.817 0 0 1-.62-.96.13.13 0 0 1 .01-.06.826.826 0 0 1 .99-.61.805.805 0 0 1 .64.8 1 1 0 0 1-.02.18l-.01.03a.82.82 0 0 1-.8.64 1 1 0 0 1-.19-.02M59.451 49.62a.825.825 0 0 1 .64.81 1 1 0 0 1-.02.18v.02a.825.825 0 0 1-.81.64.7.7 0 0 1-.19-.02.82.82 0 0 1-.62-.95c0-.02.01-.04.01-.06a.837.837 0 0 1 .99-.62M60.6 45.47a1 1 0 0 1-.18-.02.827.827 0 0 1-.63-.95c0-.02.01-.05.01-.07a.825.825 0 0 1 1.63.19.6.6 0 0 1-.02.18v.03a.835.835 0 0 1-.81.64M61.851 42.89a.805.805 0 0 1-.8.64 1 1 0 0 1-.19-.02.825.825 0 0 1-.62-.96c0-.02.01-.03.01-.05a.83.83 0 0 1 .99-.62.82.82 0 0 1 .64.8 1 1 0 0 1-.02.19ZM61.691 39.94a.835.835 0 0 1 .64.81 1 1 0 0 1-.02.18l-.01.03a.83.83 0 0 1-.8.64 1 1 0 0 1-.19-.02.82.82 0 0 1-.62-.96.13.13 0 0 1 .01-.06.83.83 0 0 1 .99-.62M54.621 45.01a.9.9 0 0 1 .1-.39l.01-.03a.854.854 0 0 1 1.12-.32.83.83 0 0 1 .34 1.1c-.01.02-.02.03-.02.04a.82.82 0 0 1-.73.43.9.9 0 0 1-.39-.1.83.83 0 0 1-.43-.73M64.716 29.773a1 1 0 0 1-.1.077 1 1 0 0 1-.13.063q-.036.017-.074.031a.8.8 0 0 1-.234.036.9.9 0 0 1-.255-.043q-.023.002-.045-.007c-.022-.009-.034-.022-.053-.031s-.032-.011-.047-.019-.037-.029-.057-.043a1 1 0 0 1-.087-.065 1 1 0 0 1-.1-.108 1 1 0 0 1-.047-.061 1 1 0 0 1-.082-.167q-.009-.02-.016-.04a.8.8 0 0 1-.035-.2c0-.012-.006-.023-.006-.034v-.01a.8.8 0 0 1 .059-.283v-.009c.013-.032.022-.065.037-.095a.9.9 0 0 1 .336-.307 1 1 0 0 1 .1-.052 1 1 0 0 1 .185-.044 1 1 0 0 1 .123-.012.8.8 0 0 1 .2.033c.024.007.048 0 .071.012s.025.015.038.021l.062.019a1 1 0 0 1 .085.063q.027.019.054.04a1 1 0 0 1 .1.105 1 1 0 0 1 .062.079 1 1 0 0 1 .051.1 1 1 0 0 1 .045.108 1 1 0 0 1 .025.161c0 .021.009.04.009.061v.01a.8.8 0 0 1-.043.251q.002.02-.007.039c-.009.019-.023.037-.032.057s-.01.029-.018.043-.02.025-.029.039a1 1 0 0 1-.087.119c-.011.022-.035.042-.058.063M59.081 40.13a.84.84 0 0 1-.73.42.8.8 0 0 1-.39-.1.83.83 0 0 1-.43-.73.9.9 0 0 1 .1-.39l.01-.02a.85.85 0 0 1 1.12-.33.83.83 0 0 1 .34 1.11c-.01.01-.01.02-.02.04M57.141 43.65a.85.85 0 0 1-.73.43.8.8 0 0 1-.39-.11.81.81 0 0 1-.43-.72.9.9 0 0 1 .1-.4l.01-.02a.86.86 0 0 1 1.13-.32.83.83 0 0 1 .32 1.12ZM56.991 42.21a.81.81 0 0 1-.43-.73.9.9 0 0 1 .1-.39l.01-.02a.854.854 0 0 1 1.13-.32.8.8 0 0 1 .39.49.82.82 0 0 1-.07.63l-.01.02a.85.85 0 0 1-.73.43.8.8 0 0 1-.39-.11M53.751 46.38l.01-.02a.85.85 0 0 1 1.12-.33.825.825 0 0 1 .33 1.12l-.01.02a.83.83 0 0 1-.73.43.76.76 0 0 1-.39-.1.825.825 0 0 1-.33-1.12M58.911 42.86a.81.81 0 0 1-.53-.76.8.8 0 0 1 .06-.3v-.03a.85.85 0 0 1 1.07-.47.82.82 0 0 1 .48 1.04c0 .02-.01.03-.01.05a.86.86 0 0 1-.77.53.8.8 0 0 1-.3-.06M57.491 46.56a.84.84 0 0 1-.53-.77 1 1 0 0 1 .05-.3l.01-.02a.84.84 0 0 1 1.07-.48.83.83 0 0 1 .48 1.05c0 .01-.01.03-.01.04a.85.85 0 0 1-.78.53 1 1 0 0 1-.29-.05M59.271 44.23a.84.84 0 0 1-.77.53.8.8 0 0 1-.3-.05.82.82 0 0 1-.53-.76.7.7 0 0 1 .06-.3v-.03a.85.85 0 0 1 1.07-.47.81.81 0 0 1 .48 1.04c0 .02-.01.03-.01.04"/><path d="M60.221 39.45a.83.83 0 0 1 .48 1.04c0 .02-.01.03-.01.05a.84.84 0 0 1-.77.53.8.8 0 0 1-.3-.06.81.81 0 0 1-.53-.76.8.8 0 0 1 .06-.3c0-.01 0-.03.01-.03a.83.83 0 0 1 1.06-.47M56.311 47.31a.844.844 0 0 1 1.07-.47.823.823 0 0 1 .47 1.07l-.01.02a.82.82 0 0 1-.76.53.7.7 0 0 1-.3-.06.78.78 0 0 1-.46-.43.8.8 0 0 1-.01-.63Z"/></g><path fill="#0047ba" d="M74.569 49.6a24.963 24.963 0 1 1-24.963-24.961A24.99 24.99 0 0 1 74.569 49.6m3.384 0a28.347 28.347 0 1 0-28.347 28.349A28.347 28.347 0 0 0 77.953 49.6"/></svg>
